<?xml version="1.0" encoding="iso-8859-1"?>
<!-- Uploaded to: SVG Repo, www.svgrepo.com, Generator: SVG Repo Mixer Tools -->
<svg fill="#000000" version="1.1" id="Capa_1" xmlns="http://www.w3.org/2000/svg" xmlns:xlink="http://www.w3.org/1999/xlink" 
	 viewBox="0 0 488.8 488.8" xml:space="preserve">
<g>
	<g>
		<g>
			<path d="M447.7,19.4H41.1v314.2h406.2V19.4H447.7z M397.2,286.7H91.6V66.3h306.1v220.3h-0.5V286.7z"/>
			<polygon points="56.3,469.4 432.5,469.4 488.8,429.1 0,429.1 			"/>
			<path d="M0,353.4v57.8h488.8v-57.8H0z M299.5,392.2H189.3c-5.4,0-10.1-4.3-10.1-10.1c0-5.4,4.3-10.1,10.1-10.1h110.2
				c5.4,0,10.1,4.3,10.1,10.1C309.6,387.5,304.9,392.2,299.5,392.2z"/>
			<rect x="105.9" y="79.9" width="277" height="194.4"/>
		</g>
	</g>
</g>
</svg>